<?xml version="1.0" encoding="utf-8"?>
<!-- Generator: Adobe Illustrator 24.0.1, SVG Export Plug-In . SVG Version: 6.00 Build 0)  -->
<svg version="1.1" id="Capa_1" xmlns="http://www.w3.org/2000/svg" xmlns:xlink="http://www.w3.org/1999/xlink" x="0px" y="0px"
	 viewBox="0 0 20 20" style="enable-background:new 0 0 20 20;" xml:space="preserve">
<style type="text/css">
	.st0{fill:#253E90;}
	.st1{fill:#FDC111;}
	.st2{fill:#FCFBFB;}
</style>
<g id="_x39_39r72_1_">
	<g>
		<path class="st0" d="M3.97,17.76c-0.31,0.23-0.65,0.4-1.03,0.48c-0.21,0.04-0.42,0.05-0.63,0.07c-0.06,0-0.09-0.01-0.08-0.08
			c0-0.03,0-0.06,0-0.09c0-5.75,0-11.5,0-17.24c0-0.21,0-0.21,0.22-0.21c0.04,0,0.08,0,0.12,0c0.05,0.03,0.11,0,0.16,0.02
			c0.3,0.05,0.59,0.12,0.86,0.27C3.69,1.04,3.8,1.12,3.92,1.19C3.95,1.2,3.98,1.23,4,1.26C4.07,1.33,4.14,1.4,4.21,1.47
			c0.05,0.03,0.09,0.06,0.1,0.11c0.02,0.06,0.05,0.11,0.1,0.15c0.04,0.02,0.04,0.07,0.06,0.1c0.09,0.24,0.15,0.48,0.19,0.73
			c0.02,0.04,0,0.09,0.02,0.13c0,0.06,0.01,0.12,0.01,0.18c0.01,0.05,0.01,0.1,0.01,0.14c0,4.18,0,8.37,0,12.55
			c0,0.05,0.01,0.1-0.01,0.14c-0.02,0.33-0.05,0.65-0.11,0.97c-0.07,0.37-0.22,0.7-0.5,0.96C4.06,17.71,4.02,17.75,3.97,17.76z"/>
		<path class="st0" d="M13.35,8.85c0.31-0.29,0.65-0.53,1.02-0.73c0.79-0.42,1.64-0.57,2.53-0.55c0.15,0,0.09,0.09,0.09,0.15
			c0,0.71,0,1.41,0,2.12c0,0.05,0.02,0.12-0.06,0.14c-0.11-0.02-0.23-0.02-0.34,0c-0.56,0.01-1.05,0.21-1.47,0.58
			c-0.42,0.38-0.7,0.84-0.81,1.4c-0.01,0.07-0.02,0.14-0.01,0.21c-0.03,0.06,0,0.13-0.02,0.2c0,0.54,0,1.07,0,1.61
			c0,0.71,0,1.43,0,2.14c0,0.44-0.11,0.85-0.35,1.2c-0.28,0.4-0.65,0.71-1.14,0.86c-0.21,0.06-0.42,0.09-0.63,0.13
			c-0.07,0.02-0.15-0.01-0.22,0.02c-0.05,0-0.1,0-0.15,0c-0.03-0.04-0.02-0.09-0.02-0.14c0-1.87,0-3.73,0-5.6
			c0-0.05,0.01-0.1-0.01-0.16c0.01-0.03,0.01-0.05,0-0.08c0.02-0.08,0-0.17,0.02-0.25c0.01-0.5,0.13-0.98,0.3-1.44
			c0.14-0.37,0.33-0.71,0.57-1.03c0.02-0.04,0.04-0.07,0.07-0.1c0.09-0.11,0.18-0.21,0.27-0.32c0.01-0.02,0.02-0.04,0.05-0.05
			C13.12,9.08,13.2,9,13.28,8.92C13.3,8.89,13.33,8.87,13.35,8.85z"/>
		<path class="st0" d="M6.3,7.59c0.55,0.07,1.09,0.19,1.58,0.45c0.01,0.01,0.03,0,0.04,0C7.95,8.06,8,8.06,8.02,8.09
			C8.1,8.14,8.18,8.18,8.26,8.22c0.03,0.02,0.08,0.02,0.1,0.06C8.47,8.36,8.59,8.43,8.7,8.51c0.04,0.01,0.06,0.04,0.08,0.07
			C9.03,8.8,9.28,9.01,9.5,9.26c0.56,0.64,0.94,1.37,1.09,2.21c0.02,0.09,0.04,0.18,0.06,0.28c0.02,0.04-0.01,0.1,0.02,0.14
			c0,0.06,0.01,0.12,0.01,0.18c0.01,0.05,0.01,0.1,0.01,0.16c0,1.97,0,3.93,0,5.9c0,0.05-0.01,0.1,0.01,0.15
			c-0.04,0.05-0.1,0.03-0.15,0.04c-0.08-0.03-0.16,0-0.24-0.02c-0.32-0.01-0.63-0.1-0.91-0.23c-0.54-0.25-0.89-0.68-1.09-1.24
			c-0.09-0.24-0.11-0.48-0.11-0.73c0-1.22,0-2.45,0-3.67c0-0.05,0-0.1,0-0.14c-0.02-0.05,0-0.1-0.02-0.14
			c-0.04-0.47-0.22-0.88-0.51-1.24c-0.27-0.34-0.62-0.6-1.04-0.77c-0.24-0.1-0.49-0.14-0.75-0.16C5.73,9.93,5.6,9.98,5.46,9.94
			c0-0.75,0-1.49,0-2.24c0-0.1,0.02-0.14,0.13-0.14c0.18,0.01,0.36,0,0.53,0.01C6.18,7.59,6.24,7.57,6.3,7.59z"/>
		<path class="st1" d="M13.36,6.91c-0.05,0.52-0.25,0.97-0.61,1.36c-0.01,0.02-0.03,0.04-0.05,0.05c-0.31,0.28-0.66,0.5-1.08,0.58
			c-0.66,0.13-1.28,0.02-1.83-0.4C9.73,8.45,9.64,8.4,9.59,8.32C9.54,8.29,9.48,8.26,9.47,8.18C9.19,7.86,9.02,7.49,8.96,7.07
			C8.94,7.02,8.97,6.97,8.94,6.93c0-0.24,0-0.47,0.05-0.71C9.07,5.9,9.22,5.61,9.42,5.35c0.33-0.42,0.77-0.67,1.29-0.78
			c0.22-0.05,0.44-0.05,0.66-0.04c0.04,0.03,0.09,0,0.13,0.02c0.29,0.06,0.57,0.14,0.82,0.3c0.39,0.26,0.7,0.6,0.88,1.04
			c0.09,0.23,0.14,0.46,0.17,0.7C13.37,6.7,13.38,6.81,13.36,6.91z"/>
		<path class="st2" d="M4.68,15.72c0-4.17,0.01-8.34,0.01-12.51c0-0.11,0-0.22-0.01-0.33C4.72,2.93,4.7,2.98,4.7,3.02
			c0,4.19,0,8.37,0,12.56C4.7,15.63,4.72,15.68,4.68,15.72z"/>
		<path class="st2" d="M10.69,18.27c0-0.05-0.01-0.09-0.01-0.14c0-1.92,0-3.85,0-5.77c0-0.1,0-0.2-0.01-0.3
			c0.02,0.03,0.02,0.06,0.02,0.09C10.69,14.19,10.69,16.23,10.69,18.27z"/>
		<path class="st2" d="M11.77,12.42c0.02,0.05,0.01,0.1,0.01,0.15c0,1.86,0,3.72,0,5.57c0,0.06-0.01,0.11,0.02,0.17
			c-0.02,0-0.04-0.01-0.04-0.04C11.76,16.32,11.76,14.37,11.77,12.42z"/>
		<path class="st2" d="M9.47,8.18c0.04,0.04,0.1,0.08,0.12,0.14C9.47,8.33,9.44,8.3,9.47,8.18z"/>
		<path class="st2" d="M3.97,17.76c0.04-0.03,0.07-0.07,0.11-0.1c0.03,0.05,0.02,0.1-0.01,0.14C4.03,17.83,4,17.76,3.97,17.76z"/>
		<path class="st2" d="M5.46,9.94c0.13,0.04,0.27-0.01,0.4,0.03C5.73,9.96,5.59,10,5.46,9.94z"/>
		<path class="st2" d="M13.36,6.91c0-0.1,0-0.21,0-0.31C13.39,6.7,13.42,6.81,13.36,6.91z"/>
		<path class="st2" d="M16.59,9.97c0.11-0.02,0.23-0.02,0.34,0C16.82,9.97,16.7,9.97,16.59,9.97z"/>
		<path class="st2" d="M11.79,12.09c0,0.08,0.01,0.17-0.02,0.25C11.76,12.25,11.74,12.17,11.79,12.09z"/>
		<path class="st2" d="M4.31,1.58c-0.03-0.04-0.07-0.07-0.1-0.11C4.29,1.47,4.32,1.51,4.31,1.58z"/>
		<path class="st2" d="M10.3,18.29c0.08,0,0.16,0,0.24,0.02C10.46,18.3,10.38,18.33,10.3,18.29z"/>
		<path class="st2" d="M11.94,18.31c0.07-0.01,0.14-0.01,0.22-0.02C12.09,18.33,12.01,18.3,11.94,18.31z"/>
		<path class="st2" d="M14.28,12.35c0-0.07-0.01-0.13,0.02-0.2C14.29,12.22,14.32,12.29,14.28,12.35z"/>
		<path class="st2" d="M12.73,9.53c-0.01,0.04-0.04,0.07-0.07,0.1C12.63,9.55,12.67,9.53,12.73,9.53z"/>
		<path class="st2" d="M12.71,8.32c0.02-0.02,0.03-0.03,0.05-0.05c0.01,0.02,0.02,0.05,0.01,0.06C12.75,8.36,12.73,8.33,12.71,8.32z
			"/>
		<path class="st2" d="M6.3,7.59c-0.06,0-0.11,0-0.17-0.02C6.19,7.57,6.25,7.55,6.3,7.59z"/>
		<path class="st2" d="M10.66,11.89c-0.02-0.04-0.02-0.09-0.02-0.14C10.71,11.79,10.65,11.84,10.66,11.89z"/>
		<path class="st2" d="M2.72,0.71c-0.05,0-0.11,0-0.16-0.02C2.61,0.69,2.67,0.67,2.72,0.71z"/>
		<path class="st2" d="M4.68,2.7C4.66,2.66,4.65,2.62,4.66,2.57C4.68,2.61,4.69,2.65,4.68,2.7z"/>
		<path class="st2" d="M11.5,4.55c-0.05,0-0.09,0-0.13-0.02C11.41,4.54,11.46,4.52,11.5,4.55z"/>
		<path class="st2" d="M13.35,8.85c-0.01,0.03-0.04,0.06-0.07,0.07C13.29,8.87,13.31,8.85,13.35,8.85z"/>
		<path class="st2" d="M4.47,1.84C4.45,1.8,4.43,1.77,4.41,1.74C4.47,1.75,4.47,1.79,4.47,1.84z"/>
		<path class="st2" d="M4,1.26C3.97,1.24,3.94,1.21,3.92,1.19C3.97,1.18,3.99,1.21,4,1.26z"/>
		<path class="st2" d="M8.78,8.58C8.75,8.56,8.72,8.54,8.7,8.51C8.75,8.51,8.78,8.53,8.78,8.58z"/>
		<path class="st2" d="M8.94,6.93c0.02,0.04,0.02,0.09,0.02,0.13C8.92,7.03,8.95,6.98,8.94,6.93z"/>
		<path class="st2" d="M13.04,9.16c-0.01,0.02-0.02,0.04-0.05,0.05c-0.01-0.02-0.03-0.04,0-0.05C13,9.15,13.02,9.16,13.04,9.16z"/>
		<path class="st2" d="M8.02,8.09c-0.03-0.02-0.07-0.04-0.1-0.06C7.97,8.03,8.01,8.04,8.02,8.09z"/>
		<path class="st2" d="M8.36,8.28C8.33,8.26,8.3,8.24,8.26,8.22C8.31,8.22,8.35,8.22,8.36,8.28z"/>
		<path class="st2" d="M8.16,12.13c0.03,0.05,0.02,0.09,0.02,0.14C8.14,12.23,8.16,12.18,8.16,12.13z"/>
	</g>
</g>
</svg>
