<?xml version="1.0" encoding="UTF-8"?>
<svg id="Capa_1" data-name="Capa 1" xmlns="http://www.w3.org/2000/svg" viewBox="0 0 26 24.73">
  <defs>
    <style>
      .cls-1 {
        fill: #a19d9e;
      }

      .cls-2 {
        fill: #f59d27;
      }
    </style>
  </defs>
  <g id="g12">
    <path id="path222" class="cls-1" d="M3.41,7.94h6.58c.21,0,.28-.09,.34-.52h.24v3.24h-.24c-.06-.38-.12-.48-.34-.48H0v-.22c.48-.04,.53-.16,.53-.33V1.06c0-.17-.06-.3-.53-.33v-.22H3.93v.22c-.47,.04-.52,.16-.52,.33V7.93"/>
    <path id="path224" class="cls-1" d="M22.75,6.65h-.24c-.05-.24-.19-.43-.57-.43h-3.55v1.71h6.14c.21,0,.28-.09,.34-.55h.24v3.2h-.24c-.06-.31-.12-.4-.34-.4H14.99v-.22c.48-.04,.53-.16,.53-.33V1.06c0-.17-.06-.3-.53-.33v-.22h9.54c.21,0,.28-.09,.34-.51h.24V3.19h-.24c-.06-.42-.12-.51-.34-.51h-6.14v1.53h3.55c.38,0,.52-.18,.57-.42h.24v2.86"/>
    <path id="path226" class="cls-2" d="M3.43,19.02h3.21c1.14,0,1.48-.48,1.48-1.01s-.34-1.01-1.48-1.01H3.43v2.02h0Zm0,5.04c0,.17,.06,.3,.53,.33v.22H.02v-.22c.48-.04,.53-.16,.53-.33V15.5c0-.16-.06-.3-.53-.33v-.22H7.02c2.83,0,4.04,.95,4.04,3.05,0,1.69-1.15,2.59-2.74,3.02l2.26,3.04c.16,.24,.34,.33,.55,.33v.22h-3.99v-.22c.27-.02,.42-.11,.42-.33,0-.16-2.02-2.7-2.27-3.08h-1.87v3.08"/>
    <path id="path228" class="cls-1" d="M22.6,15.5c0-.17-.06-.3-.53-.33v-.22h3.93v.22c-.48,.04-.52,.17-.52,.33v4.93c0,3.24-2.36,4.3-5.28,4.3s-5.28-1.07-5.28-4.3v-4.93c0-.17-.06-.3-.53-.33v-.22h3.94v.22c-.48,.04-.53,.17-.53,.33v4.93c0,1.41,.88,1.99,2.41,1.99s2.41-.57,2.41-1.99v-4.93"/>
  </g>
</svg>