<?xml version="1.0" encoding="utf-8"?>
<!-- Generator: Adobe Illustrator 27.0.1, SVG Export Plug-In . SVG Version: 6.00 Build 0)  -->
<svg version="1.1" id="Capa_1" xmlns="http://www.w3.org/2000/svg" xmlns:xlink="http://www.w3.org/1999/xlink" x="0px" y="0px"
	 viewBox="0 0 24 24" style="enable-background:new 0 0 24 24;" xml:space="preserve">
<style type="text/css">
	.st0{fill:#FFFFFF;}
</style>
<g>
	<path d="M12,11.69c-0.18,0-0.32,0.15-0.32,0.32c0,0.18,0.15,0.32,0.32,0.32s0.32-0.15,0.32-0.32S12.18,11.69,12,11.69
		C12,11.69,12,11.69,12,11.69z M12.13,11.88c0,0,0.01,0,0.01,0c0,0,0,0.01,0,0.01c0,0,0,0.01,0,0.01c0,0.05-0.03,0.18-0.04,0.23
		c0,0.02-0.01,0.03-0.02,0.03c-0.02,0-0.03-0.01-0.05-0.02c-0.03-0.02-0.04-0.03-0.07-0.05c-0.03-0.02-0.01-0.03,0.01-0.05
		c0,0,0.09-0.08,0.09-0.09c0,0,0,0,0-0.01c0,0,0,0-0.01,0c0,0-0.05,0.03-0.14,0.09c-0.01,0.01-0.02,0.01-0.04,0.01
		c-0.01,0-0.03-0.01-0.05-0.01c-0.02-0.01-0.04-0.01-0.04-0.02c0-0.01,0.01-0.01,0.02-0.02c0.09-0.04,0.16-0.07,0.19-0.08
		C12.1,11.89,12.12,11.88,12.13,11.88z"/>
	<path d="M0,12.02C0,5.4,5.37,0.03,11.98,0.03c6.62,0,11.98,5.37,11.98,11.98C23.97,18.63,18.6,24,11.98,24C5.37,24,0,18.63,0,12.02
		"/>
	<path class="st0" d="M15.85,3.73l-0.41-0.66h-2.51v5.91l-0.01,5.77c0,0.04,0.01,0.09,0.01,0.13c0,1.45-1.18,2.62-2.62,2.62
		c-1.45,0-2.62-1.18-2.62-2.62c0-1.45,1.18-2.62,2.62-2.62c0.3,0,0.59,0.05,0.86,0.15V9.53c-0.28-0.05-0.57-0.07-0.86-0.07
		c-2.99,0-5.43,2.43-5.43,5.43c0,2.99,2.43,5.43,5.43,5.43c2.99,0,5.43-2.43,5.43-5.43V8.02c1.09,1.09,2.49,2.14,4.04,2.48V7.56
		C18.08,6.81,16.41,4.61,15.85,3.73z"/>
</g>
</svg>
