<?xml version="1.0" encoding="utf-8"?>
<!-- Generator: Adobe Illustrator 27.0.1, SVG Export Plug-In . SVG Version: 6.00 Build 0)  -->
<svg version="1.1" id="Capa_1" xmlns="http://www.w3.org/2000/svg" xmlns:xlink="http://www.w3.org/1999/xlink" x="0px" y="0px"
	 viewBox="0 0 231.2 195" style="enable-background:new 0 0 231.2 195;" xml:space="preserve">
<style type="text/css">
	.st0{fill:#211D18;enable-background:new    ;}
	.st1{fill:#076491;enable-background:new    ;}
	.st2{fill:#1F1C16;enable-background:new    ;}
</style>
<g>
	
		<rect x="61.7" y="51.4" transform="matrix(-0.7071 -0.7071 0.7071 -0.7071 79.8463 157.7094)" class="st0" width="21.8" height="21.8"/>
	
		<rect x="85.3" y="27.9" transform="matrix(-0.7071 -0.7071 0.7071 -0.7071 136.786 134.1243)" class="st1" width="21.8" height="21.8"/>
	
		<rect x="108.9" y="4.3" transform="matrix(-0.7071 -0.7071 0.7071 -0.7071 193.7257 110.5391)" class="st2" width="21.8" height="21.8"/>
	
		<rect x="85.4" y="75.2" transform="matrix(-0.7071 -0.7071 0.7071 -0.7071 103.5861 215.0222)" class="st1" width="21.8" height="21.8"/>
	
		<rect x="109" y="51.6" transform="matrix(-0.7071 -0.7071 0.7071 -0.7071 160.5257 191.4371)" class="st0" width="21.8" height="21.8"/>
	
		<rect x="132.6" y="28" transform="matrix(-0.7071 -0.7071 0.7071 -0.7071 217.4654 167.8519)" class="st1" width="21.8" height="21.8"/>
	
		<rect x="109.2" y="98.9" transform="matrix(-0.7071 -0.7071 0.7071 -0.7071 127.3258 272.335)" class="st0" width="21.8" height="21.8"/>
	
		<rect x="132.8" y="75.3" transform="matrix(-0.7071 -0.7071 0.7071 -0.7071 184.2655 248.7498)" class="st1" width="21.8" height="21.8"/>
	
		<rect x="156.4" y="51.7" transform="matrix(-0.7071 -0.7071 0.7071 -0.7071 241.2052 225.1647)" class="st0" width="21.8" height="21.8"/>
</g>
<g>
	<path d="M3.2,163.7c0.1,0,0.3,0,0.4-0.2c3.1-3.8,5.9-7.6,8.9-11.3v-0.3c-2.7-3.7-5.5-7.9-8-11.6c0-0.1-0.1-0.1-0.3-0.1L1.5,140
		c0-0.9,0-2,0-2.8c1.6,0,3.6,0,5.4,0c2.5,0,5.1,0,7.2,0c0,0.9,0,2,0,2.9l-3.4,0.1c1.4,2.4,4.1,6.6,5.3,8.4h0.3
		c1.4-1.9,4.3-6.3,5.3-8.2c0-0.1,0-0.2-0.1-0.2l-3.1-0.1c0-0.9,0-2,0-2.9c1.8,0,4,0,6.3,0c1.4,0,3,0,4.3,0c0,0.9,0,2,0,2.9l-2.4,0.1
		c-2.7,3.5-5.7,7.6-8.4,10.9v0.3c2.8,3.8,6.3,8.7,8.9,12.4l2.6,0.1c0,0.9,0,1.9,0,2.9c-1.5,0-3.5,0-5.3,0c-2.5,0-5.1,0-7.3,0
		c0-1,0-2,0-2.9l3.1-0.1c0.2,0,0.3-0.1,0.2-0.3c-1.3-2-4.3-6.7-5.8-8.7h-0.3c-1.6,2.1-4.9,7-6.1,8.9l3.4,0.2c0,0.9,0,1.9,0,2.8
		c-1.8,0-4.1,0-6.4,0c-1.4,0-3.1,0-4.5,0c0-0.9,0-2,0-2.9L3.2,163.7z"/>
	<path d="M43.6,165.2c-3.1,1.6-5.1,2-6.7,2c-2.3,0-5.5-2.1-5.5-4.8c0-2.5,2.9-6.4,9.5-6.4c1.4,0,2.3,0,2.8,0
		c0.1-3.7-0.9-5.4-3.4-5.4c-1.8,0-4,1.3-5.7,2.8c-0.6-0.7-1.3-1.5-1.9-2.4c2.5-2.2,5.5-4.2,9.4-4.2c3.5,0,6.6,2.6,6.6,7.1
		c0,2.5-0.1,7.5-0.1,9.4c0,0.4,0.1,0.6,0.3,0.5l2.8-0.1c0,0.8,0,1.8,0,2.7c-0.7,0.2-3.5,0.7-6.3,0.7c-0.5-0.4-1-1.1-1.6-2H43.6z
		 M36.6,161.9c0,1.2,1.2,2.1,2.7,2.1c1.3,0,2.9-0.6,4.3-1.5c0.1-0.1,0.1-0.2,0.1-0.3c0-1,0-2.4,0-3.6c-0.2,0-1,0-1.9,0
		C38.1,158.5,36.6,160.1,36.6,161.9L36.6,161.9z"/>
	<path d="M53.6,150.7c0-0.9,0-1.8,0-2.7c2-0.3,7.3-1.2,7.5-1.2c0,0,0.1,0,0.1,0.1c0.1,1.5,0.2,3.7,0.3,6l0.3,0
		c2.7-5.2,4.1-6.2,6.2-6.2c1.1,0,2.2,0.2,3,0.5c0,1.5-1,4.1-1.7,4.7c-0.4-0.1-1.7-0.4-2.6-0.4c-0.5,0-0.9,0.1-1.4,0.5
		c-0.9,0.7-1.7,1.8-2.8,3.8c-0.6,1-0.7,2.6-0.7,4c0,1.2,0,2.7,0,3.9l4.1,0.1c0,0.8,0,1.8,0,2.7c-1.8,0-4.2,0-6.3,0
		c-1.7,0-3.8,0-5.5,0c0-0.9,0-1.9,0-2.7l2.4-0.1c0.1,0,0.2-0.1,0.2-0.2c0-4.1,0-9,0-13L53.6,150.7z"/>
	<path d="M73.1,163.9c0.2,0,0.4-0.1,0.5-0.2c1.7-1.8,4-4.1,6.2-6.4v-0.4c-1.8-2.1-3.9-4.7-5.5-6.6c-0.1,0-0.2-0.1-0.3-0.1l-2-0.1
		c0-0.9,0-1.9,0-2.8c1.3,0,3.1,0,4.7,0c1.9,0,4,0,5.7,0c0,0.9,0,1.9,0,2.8l-2.3,0.1c0.9,1.2,2.2,3,3.4,4.4h0.3
		c1.3-1.5,2.4-2.9,3.3-4.2c0-0.1,0-0.2-0.1-0.2l-1.8-0.1c0-0.9,0-1.9,0-2.8c1.4,0,3.1,0,4.6,0c1.2,0,2.6,0,3.6,0c0,0.9,0,1.9,0,2.7
		l-1.8,0.1c-1.4,1.5-3.5,3.8-6,6.4v0.2c2,2.5,4.2,5.2,5.8,7.1l2.2,0.1c0,0.9,0,1.9,0,2.8c-1.3,0-3,0-4.6,0c-1.9,0-4,0-5.8,0
		c0-0.9,0-2,0-2.8l1.9-0.1c0.2,0,0.3-0.1,0.2-0.2c-0.9-1.4-2.3-3-3.4-4.4h-0.3c-1.3,1.5-2.8,3.3-3.8,4.6l2.1,0.1c0,0.9,0,1.9,0,2.8
		c-1.4,0-3.2,0-4.7,0c-1.3,0-2.7,0-3.9,0c0-0.9,0-1.9,0-2.8L73.1,163.9z"/>
	<path d="M107.9,165.2c-3.1,1.6-5.1,2-6.7,2c-2.3,0-5.5-2.1-5.5-4.8c0-2.5,2.9-6.4,9.5-6.4c1.4,0,2.3,0,2.8,0
		c0.1-3.7-0.9-5.4-3.4-5.4c-1.8,0-4,1.3-5.7,2.8c-0.6-0.7-1.3-1.5-1.9-2.4c2.5-2.2,5.5-4.2,9.4-4.2c3.5,0,6.6,2.6,6.6,7.1
		c0,2.5-0.1,7.5-0.1,9.4c0,0.4,0.1,0.6,0.3,0.5l2.8-0.1c0,0.8,0,1.8,0,2.7c-0.7,0.2-3.5,0.7-6.3,0.7c-0.5-0.4-1-1.1-1.6-2H107.9z
		 M101,161.9c0,1.2,1.2,2.1,2.7,2.1c1.3,0,2.9-0.6,4.3-1.5c0.1-0.1,0.1-0.2,0.1-0.3c0-1,0-2.4,0-3.6c-0.2,0-1,0-1.9,0
		C102.5,158.5,101,160.1,101,161.9L101,161.9z"/>
	<path d="M154.1,140.2c-1.4,3.6-3.1,8.1-4.6,12c-1.8,4.5-4,10.3-6,15c-0.4,0.1-2.2,0.1-4.2,0.1c-1.9-4.9-4-10.6-5.7-15.5
		c-1.2-3.7-2.6-7.8-3.8-11.4c0-0.1-0.1-0.1-0.2-0.2L127,140c0-1,0-2,0-2.9c1.5,0,3.6,0,5.3,0c2.6,0,5.3,0,7.6,0c0,0.9,0,2,0,2.9
		l-4,0.1c0.5,1.9,2.1,7.4,2.7,9.4c1.1,3.6,2.3,7.6,3.6,11.6h0.3c1.2-3.5,2.5-6.9,3.5-9.8c0.9-2.8,2.9-8.5,3.4-10.9
		c0-0.1,0-0.2-0.1-0.2l-3.4-0.1c0-0.9,0-2,0-2.9c1.8,0,4.1,0,6.3,0c1.4,0,3,0,4.4,0c0,0.9,0,1.9,0,2.9L154.1,140.2z"/>
	<path d="M157.7,150.7c0-0.9,0-1.9,0-2.7c2.2-0.2,8-1.2,8.4-1.2c0,0,0,0,0,0.1c0,5-0.1,12.2-0.1,16.9l2.9,0.1c0,0.9,0,1.9,0,2.7
		c-1.6,0-3.8,0-5.6,0c-1.7,0-3.7,0-5.4,0c0-0.9,0-1.9,0-2.7l2.8-0.1c0.1,0,0.2-0.1,0.2-0.2v-12.8L157.7,150.7z M163.3,137.1
		c2.1,0,3,1.5,3,2.9c0,1.9-1.4,3.1-3.2,3.1c-1.7,0-3.1-1.3-3.1-3C160,138.5,161.2,137.1,163.3,137.1L163.3,137.1z"/>
	<path d="M190.5,150.1c-0.6,1.5-1.9,4.4-3.6,8.2c-1.3,3-2.4,5.3-4.1,8.8c-0.9,0-2.8,0-4.3,0c-1.6-4.1-2.3-6-3.7-10.1
		c-1.2-3.4-1.8-5.2-2.4-6.8c0-0.1-0.1-0.1-0.2-0.1l-2.1-0.1c0-1,0-2,0-2.8c1.4,0,3.2,0,4.9,0c1.9,0,4,0,5.7,0c0,0.9,0,1.9,0,2.8
		l-2.6,0.1c0.3,1,0.8,3,1.6,5.7c0.9,2.8,1.4,4.7,2,6.4h0.3c0.7-1.9,1.3-3.4,2.3-5.9c0.9-2.5,1.5-4.3,2-6.1c0-0.1,0-0.2-0.1-0.2
		l-2.2-0.1c0-0.9,0-2,0-2.8c1.5,0,3.3,0,4.9,0c1.3,0,2.6,0,3.7,0c0,0.9,0,1.9,0,2.8L190.5,150.1z"/>
	<path d="M193.9,157.9c0-6.1,4.2-11.1,10.5-11.1c2.6,0,4.6,0.9,5.7,2.4c1.4,1.7,2,4,2,6.4c-0.1,0.6-1.5,2-2,2.1
		c-2,0.1-7.5,0.1-10.9,0.1c0,2.1,0.5,3.5,1.4,4.5c1.2,1.3,2.6,1.5,4.2,1.5c2,0,4.7-0.8,6.2-1.4c0.3,0.9,0.6,1.9,0.7,2.8
		c-2.6,1.2-5.9,2-8,2C197.8,167.2,193.9,163.7,193.9,157.9L193.9,157.9z M203.8,149.6c-1.2,0-2.2,0.4-2.9,1.3
		c-0.6,0.8-1.4,2-1.5,4.1c2.2,0,5.3,0,7.4-0.1c0.3,0,0.5-0.2,0.5-0.5c0-1.3-0.4-2.6-0.9-3.4C205.8,150.2,205,149.6,203.8,149.6
		L203.8,149.6z"/>
	<path d="M219,163c0.1,0.2,0.1,0.4,0.4,0.5c0.7,0.5,1.8,0.8,2.9,0.8c1.1,0,1.9,0,2.7-0.5c0.6-0.4,1.2-1,1.2-2c0-1.8-1-2.1-4.5-3.1
		c-3.9-1.1-5.6-2.8-5.6-5.5c0-2.4,1.7-4.2,3.4-5.1c1.4-0.7,3.4-1.2,5.9-1.2c2.5,0,4.3,0.5,4.9,0.7c0.2,1.8,0.4,3.6,0.6,5.5
		c-0.9,0.1-2,0.3-3.1,0.5l-0.7-2.7c0-0.2-0.1-0.4-0.3-0.5c-0.6-0.4-1.5-0.6-2.3-0.6c-0.9,0-1.8,0.2-2.3,0.6c-0.6,0.4-1,1-1,2
		c0,1.5,0.8,1.8,4.4,2.8c3.3,0.9,5.7,2,5.7,5.6c0,2.2-1.2,4.1-3.4,5.3c-1.3,0.7-3.6,1.1-6.1,1.1c-2.3,0-4.5-0.4-5.7-0.8
		c-0.2-1.9-0.5-3.8-0.7-5.6c1-0.2,2.1-0.4,3.1-0.5L219,163z"/>
</g>
<g>
	<path d="M86.7,193.8h-0.2c-1.1,0.5-1.9,0.9-2.3,1c-0.5,0.1-1,0.2-1.5,0.2c-1.4,0-2.5-0.4-3.4-1.3c-1.1-1-1.6-2.4-1.6-4.2
		c0-0.9,0.2-1.8,0.5-2.6s0.8-1.6,1.4-2.2c1-1.2,2.4-1.8,4.1-1.8c0.9,0,1.8,0.2,2.8,0.5l0.1-0.1c0-0.7,0-1.7,0-3c0-1.3,0-2.3,0-3
		l-2.3-0.1c0-0.5,0-0.9,0-1.2c0.4,0,0.9-0.1,1.7-0.2c0.7-0.1,1.3-0.2,1.9-0.3c0.5-0.1,0.8-0.1,0.9-0.1c0.1,0,0.1,0,0.1,0.1
		c0,1.6,0,4.4,0,8.5s0,7,0,8.8c0,0.4,0.1,0.6,0.3,0.6l1.9-0.1v1.2c-0.3,0.1-0.7,0.2-1.4,0.3c-0.7,0.1-1.3,0.2-1.8,0.2
		C87.3,194.8,87,194.4,86.7,193.8z M86.5,192.1c0-3.3,0-5.6,0-7c-0.9-0.5-1.8-0.7-2.7-0.7c-1.2,0-2.1,0.4-2.7,1.3
		c-0.7,0.9-1,2.1-1,3.6c0,1.4,0.3,2.4,0.9,3.2c0.6,0.8,1.4,1.1,2.4,1.1c1,0,2-0.4,3.1-1.1C86.4,192.4,86.5,192.3,86.5,192.1z"/>
	<path d="M94.1,175.5c0.5,0,0.9,0.2,1.2,0.6c0.4,0.4,0.6,0.9,0.6,1.6c0,0.9-0.3,1.8-0.9,2.6c-0.6,0.8-1.3,1.4-2.2,1.9
		c-0.4-0.4-0.6-0.8-0.7-0.9c1.2-0.8,1.7-1.6,1.7-2.5c0-0.6-0.4-1-1.2-1.2c-0.1-0.6,0-1.1,0.3-1.4C93.2,175.7,93.6,175.5,94.1,175.5z
		"/>
	<path d="M107.3,193.6l-0.1,0c-1.1,0.7-1.9,1.1-2.5,1.2c-0.5,0.2-1.1,0.2-1.7,0.2c-0.9,0-1.7-0.4-2.5-1.2s-1.1-1.6-1.1-2.6
		c0-0.8,0-2,0-3.5c0-1.5,0-2.6,0-3.2l-1.7,0c0-0.3,0-0.7,0.1-1.3c0.2,0,0.7,0,1.3,0c0.6,0,1.2,0,1.6,0c0.5,0,0.7,0,0.8,0
		c0.1,0,0.1,0,0.1,0.1c-0.1,2.1-0.1,4.3-0.1,6.6c0,0,0,0.2,0,0.3c0,0.2,0,0.3,0,0.3c0,0,0,0.1,0,0.3c0,0.1,0,0.2,0,0.3s0,0.1,0,0.3
		c0,0.1,0,0.2,0,0.3c0,0.1,0,0.1,0,0.2c0,0.1,0,0.2,0.1,0.2c0,0.1,0.1,0.1,0.1,0.2c0,0.1,0.1,0.1,0.1,0.2c0.4,0.7,1.1,1,1.9,1
		c0.9,0,2-0.5,3.3-1.4c0-0.7,0-1.5,0-2.4c0-0.9,0-1.9,0-2.9c0-1.1,0-1.8,0-2.2l-1.8-0.1c0-0.6,0-1,0-1.3c0.4,0,1.1,0,2.2,0
		c1.1,0,1.6,0,1.7,0c0,0,0.1,0,0.1,0.1c0,1,0,2.6,0,4.9c0,2.2,0,3.9,0,5c0,0.3,0.1,0.4,0.2,0.4l1.9,0c0,0.5,0,0.9,0,1.2
		c-0.2,0.1-0.7,0.2-1.3,0.3c-0.7,0.1-1.3,0.1-1.8,0.1C107.9,194.8,107.6,194.3,107.3,193.6z"/>
	<path d="M114.6,184.9l-2.1-0.1c0-0.1,0-0.3,0-0.6c0-0.3,0-0.4,0-0.6c0.3,0,0.8-0.1,1.4-0.3c0.6-0.1,1.2-0.2,1.6-0.3
		c0.5-0.1,0.7-0.1,0.8-0.1c0,0,0.1,0,0.1,0.1c0.1,0.5,0.2,1,0.3,1.6l0.1,0c1.3-0.8,2.2-1.3,2.8-1.5c0.5-0.2,1.1-0.3,1.8-0.3
		c0.7,0,1.2,0.2,1.8,0.5c0.5,0.4,0.9,0.8,1.2,1.3c0.4,0.6,0.6,1.2,0.6,2c0,0.8,0,2.1,0,3.8c0,1.7,0,2.7,0,2.9l1.8,0.1
		c0,0.4,0,0.8,0,1.2c-0.3,0-0.8,0-1.4,0c-0.7,0-1.2,0-1.5,0c-0.3,0-0.7,0-1.4,0c-0.6,0-1,0-1.3,0c0-0.5,0-0.9,0-1.2l1.6-0.1
		c0.1,0,0.1-0.1,0.1-0.1c0-1,0-2.7,0-5c0-0.5,0-0.9,0-1.1c0-0.3,0-0.5-0.1-0.9c-0.1-0.3-0.1-0.6-0.3-0.8c-0.2-0.4-0.5-0.7-0.8-0.8
		c-0.3-0.1-0.7-0.2-1.1-0.2c-0.5,0-1.1,0.2-1.8,0.5c-0.7,0.3-1.3,0.7-1.9,1.2c0,3.4-0.1,5.9-0.1,7.3l2,0.1c0,0.1,0,0.3,0,0.6
		c0,0.3,0,0.5,0,0.6c-0.3,0-0.8,0-1.5,0c-0.7,0-1.3,0-1.6,0c-0.3,0-0.8,0-1.4,0c-0.6,0-1,0-1.3,0c0-0.5,0-0.9,0-1.2l1.6-0.1
		c0.1,0,0.1,0,0.1-0.1L114.6,184.9z"/>
	<path d="M130.1,184.8l-2.1-0.1v-1.2c0.3,0,0.8-0.1,1.5-0.2c0.7-0.1,1.3-0.2,1.8-0.3c0.5-0.1,0.8-0.1,0.9-0.1c0,0,0.1,0,0.1,0.1
		c0,1,0,2.8,0,5.3c0,2.5,0,4.2,0,5.2l2,0.1c0,0.5,0,0.9,0,1.2H131c-0.3,0-0.8,0-1.5,0c-0.7,0-1.1,0-1.4,0v-1.2l1.9-0.1
		c0.1,0,0.1,0,0.1-0.1V184.8z M131.1,177.4c0.5,0,0.8,0.1,1,0.4c0.2,0.3,0.3,0.6,0.3,1c0,0.4-0.1,0.8-0.4,1.1
		c-0.3,0.3-0.6,0.4-1.1,0.4c-0.4,0-0.8-0.1-1.1-0.4c-0.3-0.3-0.4-0.6-0.4-1s0.1-0.7,0.4-1C130.2,177.5,130.6,177.4,131.1,177.4z"/>
	<path d="M147.9,184.4l-1.3,0.1c-0.1,0.2-0.3,0.6-0.5,1.1c-0.2,0.5-0.5,1.1-0.9,2c-0.4,0.8-0.7,1.6-1,2.2c-0.8,1.8-1.6,3.5-2.5,5.2
		c-0.3,0-0.8,0-1.6,0c-1.1-2.8-1.9-4.8-2.3-6c-0.5-1.5-1-2.9-1.5-4.4c0-0.1-0.1-0.1-0.1-0.1l-1.5-0.1c0-0.5,0-0.9,0-1.2h2.6h3.1
		c0,0.5,0,0.9,0,1.2l-1.9,0.1c0.2,0.7,0.6,2,1.2,3.9c0.9,2.7,1.3,4.1,1.4,4.3h0.2c0.7-1.6,1.2-2.9,1.6-3.9c0.8-2,1.3-3.4,1.6-4.2
		c0-0.1,0-0.1-0.1-0.1l-1.6-0.1c0-0.5,0-0.9,0-1.2c0.3,0,0.7,0,1.4,0c0.6,0,1.1,0,1.5,0h2.1C147.9,183.7,147.9,184.1,147.9,184.4z"
		/>
	<path d="M148.8,189.5c0-1.8,0.5-3.4,1.6-4.7c1.1-1.3,2.5-1.9,4.3-1.9c1.4,0,2.5,0.5,3.3,1.4c0.7,0.9,1.1,2.1,1.1,3.6
		c-0.1,0.2-0.2,0.4-0.4,0.6c-0.2,0.2-0.4,0.4-0.5,0.4c-1.6,0.1-4,0.1-7.1,0.1c0,1.5,0.3,2.7,0.9,3.4c0.4,0.4,0.8,0.7,1.2,0.9
		c0.4,0.1,1,0.2,1.6,0.2c1,0,2.2-0.3,3.7-0.9c0.1,0.4,0.2,0.8,0.3,1.2c-1.6,0.8-3.1,1.2-4.4,1.2c-1.8,0-3.1-0.5-4.1-1.5
		C149.3,192.5,148.8,191.1,148.8,189.5z M154.4,184.2c-0.9,0-1.6,0.3-2.1,0.8c-0.7,0.9-1.1,1.8-1.2,2.7c2,0,3.8,0,5.4-0.1
		c0.2,0,0.4-0.1,0.4-0.3c0-0.9-0.2-1.7-0.7-2.3C155.7,184.5,155.1,184.2,154.4,184.2z"/>
	<path d="M162.8,184.8l-2,0c0-0.5,0-0.9,0-1.2c0.3,0,0.8-0.1,1.4-0.2c0.6-0.1,1.2-0.2,1.7-0.3c0.5-0.1,0.7-0.1,0.8-0.1
		c0,0,0,0,0,0.1c0,0.5,0.1,1.7,0.1,3.7l0.2,0c0.8-1.5,1.4-2.5,2-3c0.6-0.5,1.1-0.8,1.8-0.8c0.6,0,1.1,0.1,1.6,0.3
		c0,0.3-0.1,0.7-0.3,1.1c-0.2,0.5-0.3,0.8-0.5,0.9c0,0-0.2,0-0.3-0.1c-0.2,0-0.4-0.1-0.6-0.1c-0.2,0-0.4,0-0.5,0
		c-0.3,0-0.6,0.1-0.9,0.4c-0.6,0.5-1.2,1.4-1.8,2.6c-0.3,0.6-0.5,1.4-0.5,2.5c0,0.6,0,1.6,0,3l2.6,0.1c0,0.5,0,0.9,0,1.2H164
		c-0.3,0-0.8,0-1.5,0c-0.7,0-1.1,0-1.4,0c0-0.5,0-0.9,0-1.2l1.6-0.1c0.1,0,0.1,0,0.1-0.1V184.8z"/>
	<path d="M172.8,191.1l0.4,1.8c0.1,0.1,0.1,0.3,0.2,0.3c0.2,0.2,0.5,0.3,0.8,0.4c0.4,0.1,0.7,0.2,1.1,0.2c1,0,1.7-0.1,2.1-0.4
		c0.5-0.4,0.8-0.9,0.8-1.5c0-0.3,0-0.6-0.1-0.8c-0.1-0.2-0.3-0.4-0.5-0.5c-0.2-0.2-0.5-0.3-0.8-0.4c-0.3-0.1-0.8-0.2-1.3-0.4
		c-0.1,0-0.3-0.1-0.3-0.1c-1.1-0.3-1.9-0.8-2.4-1.2c-0.5-0.5-0.7-1.1-0.7-1.9c0-0.6,0.2-1.2,0.5-1.6c0.3-0.5,0.8-0.8,1.2-1.1
		c0.9-0.5,1.9-0.7,3.3-0.7c0.7,0,1.2,0.1,1.7,0.2c0.5,0.1,0.8,0.2,1,0.3c0.2,1.6,0.3,2.6,0.3,3c-0.1,0-0.3,0-0.6,0.1
		c-0.3,0-0.6,0.1-0.8,0.1l-0.4-1.7c0-0.1-0.1-0.2-0.2-0.3c-0.4-0.3-0.9-0.4-1.6-0.4c-0.7,0-1.3,0.2-1.7,0.5
		c-0.5,0.3-0.7,0.8-0.7,1.4c0,0.5,0.2,0.9,0.5,1.1c0.3,0.2,1.1,0.5,2.3,0.8c0.5,0.1,0.8,0.3,1.1,0.4c0.3,0.1,0.6,0.3,1,0.4
		c0.3,0.2,0.6,0.4,0.8,0.6c0.2,0.2,0.3,0.5,0.5,0.8c0.1,0.3,0.2,0.7,0.2,1.1c0,1.2-0.6,2.2-1.8,2.9c-0.8,0.5-1.9,0.7-3.4,0.7
		c-1.4,0-2.5-0.2-3.3-0.5c0-0.4-0.1-0.9-0.2-1.6c-0.1-0.7-0.2-1.2-0.2-1.6C171.8,191.2,172.3,191.1,172.8,191.1z"/>
	<path d="M184.3,184.8l-2.1-0.1v-1.2c0.3,0,0.8-0.1,1.5-0.2c0.7-0.1,1.3-0.2,1.8-0.3c0.5-0.1,0.8-0.1,0.9-0.1c0,0,0.1,0,0.1,0.1
		c0,1,0,2.8,0,5.3c0,2.5,0,4.2,0,5.2l2,0.1c0,0.5,0,0.9,0,1.2h-3.1c-0.3,0-0.8,0-1.5,0c-0.7,0-1.1,0-1.4,0v-1.2l1.9-0.1
		c0.1,0,0.1,0,0.1-0.1V184.8z M185.3,177.4c0.5,0,0.8,0.1,1,0.4c0.2,0.3,0.3,0.6,0.3,1c0,0.4-0.1,0.8-0.4,1.1
		c-0.3,0.3-0.6,0.4-1.1,0.4c-0.4,0-0.8-0.1-1.1-0.4c-0.3-0.3-0.4-0.6-0.4-1s0.1-0.7,0.4-1C184.4,177.5,184.8,177.4,185.3,177.4z"/>
	<path d="M194.5,195c-0.9,0-1.6-0.2-2.1-0.7c-0.3-0.3-0.5-0.6-0.6-0.9c-0.1-0.3-0.1-0.7-0.1-1.2c0-0.5,0-1.3,0-2.4
		c0-1.1,0-1.7,0-1.8c0-0.3,0-0.8,0-1.7c0-0.8,0-1.3,0-1.5h-1.9c0-0.2,0-0.6,0.1-1.3c0.4,0,1,0,1.8-0.1c0,0,0.1,0,0.1-0.1
		c0,0,0.1-0.1,0.1-0.1c0-0.3,0-0.7,0-1.3c0-0.6,0-1,0-1.3c0.2-0.1,0.5-0.3,0.8-0.4c0.3-0.2,0.6-0.3,0.8-0.4s0.3-0.1,0.4-0.1
		c0.1,0,0.1,0,0.1,0.1c0,1.6-0.1,2.8-0.1,3.6c2,0,3.4,0,4.4,0c0,0.1,0,0.6-0.1,1.4h-4.3v3.1c0,0.8,0,2.1,0,4.1c0,0.6,0.2,1,0.5,1.3
		c0.3,0.3,0.8,0.4,1.3,0.4c0.7,0,1.6-0.1,2.7-0.4c0,0.2,0.1,0.6,0.2,1.2C197.2,194.8,195.9,195,194.5,195z"/>
	<path d="M207,193.8h-0.1c-1,0.5-1.7,0.8-2.3,1c-0.6,0.2-1.2,0.2-1.7,0.2c-0.7,0-1.4-0.3-2.1-0.8c-0.7-0.5-1-1.2-1-1.9
		c0-0.4,0.1-0.8,0.3-1.2c0.2-0.4,0.5-0.8,1-1.2c0.4-0.4,1-0.7,1.7-0.9c0.7-0.2,1.5-0.4,2.4-0.3h1.9c0.1-1.5-0.1-2.5-0.5-3.1
		c-0.4-0.6-1-1-1.8-1c-1.1,0-2.2,0.6-3.3,1.8c-0.4-0.4-0.7-0.8-0.9-1c0.7-0.7,1.5-1.3,2.3-1.8c0.8-0.4,1.7-0.7,2.7-0.7
		c1.1,0,2,0.4,2.7,1.1c0.7,0.8,1,1.9,1,3.3c0,2.3,0,4.2-0.1,5.8c0,0.3,0.1,0.4,0.2,0.4l1.9-0.1v1.2c-0.2,0.1-0.7,0.1-1.4,0.2
		c-0.7,0.1-1.3,0.1-1.8,0.1C207.8,194.9,207.5,194.5,207,193.8z M201.9,192.1c0,0.4,0.2,0.8,0.5,1c0.3,0.3,0.8,0.4,1.3,0.4
		c0.4,0,0.9-0.1,1.5-0.3c0.6-0.2,1.1-0.5,1.6-0.8c0.1,0,0.1-0.1,0.1-0.2v-2.3c-0.2,0-0.7-0.1-1.6-0.1c-1.2,0-2,0.2-2.6,0.6
		C202.2,190.9,201.9,191.4,201.9,192.1z"/>
	<path d="M216.9,195c-0.9,0-1.6-0.2-2.1-0.7c-0.3-0.3-0.5-0.6-0.6-0.9c-0.1-0.3-0.1-0.7-0.1-1.2c0-0.5,0-1.3,0-2.4
		c0-1.1,0-1.7,0-1.8c0-0.3,0-0.8,0-1.7c0-0.8,0-1.3,0-1.5h-1.9c0-0.2,0-0.6,0.1-1.3c0.4,0,1,0,1.8-0.1c0,0,0.1,0,0.1-0.1
		c0,0,0.1-0.1,0.1-0.1c0-0.3,0-0.7,0-1.3c0-0.6,0-1,0-1.3c0.2-0.1,0.5-0.3,0.8-0.4c0.3-0.2,0.6-0.3,0.8-0.4s0.3-0.1,0.4-0.1
		c0.1,0,0.1,0,0.1,0.1c0,1.6-0.1,2.8-0.1,3.6c2,0,3.4,0,4.4,0c0,0.1,0,0.6-0.1,1.4h-4.3v3.1c0,0.8,0,2.1,0,4.1c0,0.6,0.2,1,0.5,1.3
		c0.3,0.3,0.8,0.4,1.3,0.4c0.7,0,1.6-0.1,2.7-0.4c0,0.2,0.1,0.6,0.2,1.2C219.6,194.8,218.3,195,216.9,195z"/>
	<path d="M223.8,191.1l0.4,1.8c0.1,0.1,0.1,0.3,0.2,0.3c0.2,0.2,0.5,0.3,0.8,0.4c0.4,0.1,0.7,0.2,1.1,0.2c1,0,1.7-0.1,2.1-0.4
		c0.5-0.4,0.8-0.9,0.8-1.5c0-0.3,0-0.6-0.1-0.8c-0.1-0.2-0.3-0.4-0.5-0.5c-0.2-0.2-0.5-0.3-0.8-0.4c-0.3-0.1-0.8-0.2-1.3-0.4
		c-0.1,0-0.3-0.1-0.3-0.1c-1.1-0.3-1.9-0.8-2.4-1.2c-0.5-0.5-0.7-1.1-0.7-1.9c0-0.6,0.2-1.2,0.5-1.6c0.3-0.5,0.8-0.8,1.2-1.1
		c0.9-0.5,1.9-0.7,3.3-0.7c0.7,0,1.2,0.1,1.7,0.2c0.5,0.1,0.8,0.2,1,0.3c0.2,1.6,0.3,2.6,0.3,3c-0.1,0-0.3,0-0.6,0.1
		c-0.3,0-0.6,0.1-0.8,0.1l-0.4-1.7c0-0.1-0.1-0.2-0.2-0.3c-0.4-0.3-0.9-0.4-1.6-0.4c-0.7,0-1.3,0.2-1.7,0.5
		c-0.5,0.3-0.7,0.8-0.7,1.4c0,0.5,0.2,0.9,0.5,1.1c0.3,0.2,1.1,0.5,2.3,0.8c0.5,0.1,0.8,0.3,1.1,0.4c0.3,0.1,0.6,0.3,1,0.4
		c0.3,0.2,0.6,0.4,0.8,0.6c0.2,0.2,0.3,0.5,0.5,0.8c0.1,0.3,0.2,0.7,0.2,1.1c0,1.2-0.6,2.2-1.8,2.9c-0.8,0.5-1.9,0.7-3.4,0.7
		c-1.4,0-2.5-0.2-3.3-0.5c0-0.4-0.1-0.9-0.2-1.6c-0.1-0.7-0.2-1.2-0.2-1.6C222.8,191.2,223.3,191.1,223.8,191.1z"/>
</g>
</svg>
